<mxfile host="app.diagrams.net" modified="2023-08-05T01:07:31.011Z" agent="Mozilla/5.0 (Macintosh; Intel Mac OS X 10_15_7) AppleWebKit/537.36 (KHTML, like Gecko) Chrome/115.0.0.0 Safari/537.36" etag="AHblg3GHJFpdjtAXfEoj" version="21.6.6" type="device">
  <diagram name="Page-1" id="4nOfmwhJwsmiDeTSOHxx">
    <mxGraphModel dx="474" dy="765" grid="1" gridSize="10" guides="1" tooltips="1" connect="1" arrows="1" fold="1" page="1" pageScale="1" pageWidth="827" pageHeight="1169" math="0" shadow="0">
      <root>
        <mxCell id="0" />
        <mxCell id="1" parent="0" />
        <mxCell id="ClPUn2JrLx7FxpA5mYzu-3" value="" style="rounded=0;whiteSpace=wrap;html=1;" vertex="1" parent="1">
          <mxGeometry x="40" y="120" width="760" height="380" as="geometry" />
        </mxCell>
        <mxCell id="ClPUn2JrLx7FxpA5mYzu-4" value="&lt;b&gt;&lt;font style=&quot;font-size: 15px;&quot;&gt;Diffetto&lt;/font&gt;&lt;/b&gt;" style="text;html=1;strokeColor=none;fillColor=none;align=center;verticalAlign=middle;whiteSpace=wrap;rounded=0;" vertex="1" parent="1">
          <mxGeometry x="384" y="130" width="60" height="30" as="geometry" />
        </mxCell>
        <mxCell id="ClPUn2JrLx7FxpA5mYzu-5" value="InputPage" style="text;html=1;strokeColor=none;fillColor=none;align=center;verticalAlign=middle;whiteSpace=wrap;rounded=0;" vertex="1" parent="1">
          <mxGeometry x="40" y="70" width="60" height="30" as="geometry" />
        </mxCell>
        <mxCell id="ClPUn2JrLx7FxpA5mYzu-6" value="" style="rounded=0;whiteSpace=wrap;html=1;" vertex="1" parent="1">
          <mxGeometry x="40" y="580" width="760" height="380" as="geometry" />
        </mxCell>
        <mxCell id="ClPUn2JrLx7FxpA5mYzu-7" value="&lt;b&gt;&lt;font style=&quot;font-size: 15px;&quot;&gt;Diffetto&lt;/font&gt;&lt;/b&gt;" style="text;html=1;strokeColor=none;fillColor=none;align=center;verticalAlign=middle;whiteSpace=wrap;rounded=0;" vertex="1" parent="1">
          <mxGeometry x="384" y="590" width="60" height="30" as="geometry" />
        </mxCell>
        <mxCell id="ClPUn2JrLx7FxpA5mYzu-8" value="ResultPage" style="text;html=1;strokeColor=none;fillColor=none;align=center;verticalAlign=middle;whiteSpace=wrap;rounded=0;" vertex="1" parent="1">
          <mxGeometry x="40" y="530" width="60" height="30" as="geometry" />
        </mxCell>
        <mxCell id="ClPUn2JrLx7FxpA5mYzu-9" value="trace block 1 goes here" style="rounded=1;whiteSpace=wrap;html=1;" vertex="1" parent="1">
          <mxGeometry x="60" y="190" width="350" height="200" as="geometry" />
        </mxCell>
        <mxCell id="ClPUn2JrLx7FxpA5mYzu-10" value="trace block 2 goes here" style="rounded=1;whiteSpace=wrap;html=1;" vertex="1" parent="1">
          <mxGeometry x="430" y="190" width="350" height="200" as="geometry" />
        </mxCell>
        <mxCell id="ClPUn2JrLx7FxpA5mYzu-11" value="Before" style="text;html=1;strokeColor=none;fillColor=none;align=center;verticalAlign=middle;whiteSpace=wrap;rounded=0;" vertex="1" parent="1">
          <mxGeometry x="60" y="160" width="60" height="30" as="geometry" />
        </mxCell>
        <mxCell id="ClPUn2JrLx7FxpA5mYzu-13" value="After" style="text;html=1;strokeColor=none;fillColor=none;align=center;verticalAlign=middle;whiteSpace=wrap;rounded=0;" vertex="1" parent="1">
          <mxGeometry x="414" y="160" width="60" height="30" as="geometry" />
        </mxCell>
        <mxCell id="ClPUn2JrLx7FxpA5mYzu-14" value="Find diff!" style="rounded=1;whiteSpace=wrap;html=1;fillColor=#dae8fc;strokeColor=#6c8ebf;" vertex="1" parent="1">
          <mxGeometry x="360" y="420" width="120" height="20" as="geometry" />
        </mxCell>
        <mxCell id="ClPUn2JrLx7FxpA5mYzu-29" value="" style="childLayout=tableLayout;recursiveResize=0;shadow=0;fillColor=none;" vertex="1" parent="1">
          <mxGeometry x="50" y="650" width="730" height="140" as="geometry" />
        </mxCell>
        <mxCell id="ClPUn2JrLx7FxpA5mYzu-30" value="" style="shape=tableRow;horizontal=0;startSize=0;swimlaneHead=0;swimlaneBody=0;top=0;left=0;bottom=0;right=0;dropTarget=0;collapsible=0;recursiveResize=0;expand=0;fontStyle=0;fillColor=none;strokeColor=inherit;" vertex="1" parent="ClPUn2JrLx7FxpA5mYzu-29">
          <mxGeometry width="730" height="47" as="geometry" />
        </mxCell>
        <mxCell id="ClPUn2JrLx7FxpA5mYzu-31" value="Value 1" style="connectable=0;recursiveResize=0;strokeColor=inherit;fillColor=none;align=center;whiteSpace=wrap;html=1;" vertex="1" parent="ClPUn2JrLx7FxpA5mYzu-30">
          <mxGeometry width="243" height="47" as="geometry">
            <mxRectangle width="243" height="47" as="alternateBounds" />
          </mxGeometry>
        </mxCell>
        <mxCell id="ClPUn2JrLx7FxpA5mYzu-32" value="Value 2" style="connectable=0;recursiveResize=0;strokeColor=inherit;fillColor=none;align=center;whiteSpace=wrap;html=1;" vertex="1" parent="ClPUn2JrLx7FxpA5mYzu-30">
          <mxGeometry x="243" width="244" height="47" as="geometry">
            <mxRectangle width="244" height="47" as="alternateBounds" />
          </mxGeometry>
        </mxCell>
        <mxCell id="ClPUn2JrLx7FxpA5mYzu-33" value="Value 3" style="connectable=0;recursiveResize=0;strokeColor=inherit;fillColor=none;align=center;whiteSpace=wrap;html=1;" vertex="1" parent="ClPUn2JrLx7FxpA5mYzu-30">
          <mxGeometry x="487" width="243" height="47" as="geometry">
            <mxRectangle width="243" height="47" as="alternateBounds" />
          </mxGeometry>
        </mxCell>
        <mxCell id="ClPUn2JrLx7FxpA5mYzu-34" style="shape=tableRow;horizontal=0;startSize=0;swimlaneHead=0;swimlaneBody=0;top=0;left=0;bottom=0;right=0;dropTarget=0;collapsible=0;recursiveResize=0;expand=0;fontStyle=0;fillColor=none;strokeColor=inherit;" vertex="1" parent="ClPUn2JrLx7FxpA5mYzu-29">
          <mxGeometry y="47" width="730" height="46" as="geometry" />
        </mxCell>
        <mxCell id="ClPUn2JrLx7FxpA5mYzu-35" value="Value 4" style="connectable=0;recursiveResize=0;strokeColor=inherit;fillColor=none;align=center;whiteSpace=wrap;html=1;" vertex="1" parent="ClPUn2JrLx7FxpA5mYzu-34">
          <mxGeometry width="243" height="46" as="geometry">
            <mxRectangle width="243" height="46" as="alternateBounds" />
          </mxGeometry>
        </mxCell>
        <mxCell id="ClPUn2JrLx7FxpA5mYzu-36" value="Value 5" style="connectable=0;recursiveResize=0;strokeColor=inherit;fillColor=none;align=center;whiteSpace=wrap;html=1;" vertex="1" parent="ClPUn2JrLx7FxpA5mYzu-34">
          <mxGeometry x="243" width="244" height="46" as="geometry">
            <mxRectangle width="244" height="46" as="alternateBounds" />
          </mxGeometry>
        </mxCell>
        <mxCell id="ClPUn2JrLx7FxpA5mYzu-37" value="Value 6" style="connectable=0;recursiveResize=0;strokeColor=inherit;fillColor=none;align=center;whiteSpace=wrap;html=1;" vertex="1" parent="ClPUn2JrLx7FxpA5mYzu-34">
          <mxGeometry x="487" width="243" height="46" as="geometry">
            <mxRectangle width="243" height="46" as="alternateBounds" />
          </mxGeometry>
        </mxCell>
        <mxCell id="ClPUn2JrLx7FxpA5mYzu-38" style="shape=tableRow;horizontal=0;startSize=0;swimlaneHead=0;swimlaneBody=0;top=0;left=0;bottom=0;right=0;dropTarget=0;collapsible=0;recursiveResize=0;expand=0;fontStyle=0;fillColor=none;strokeColor=inherit;" vertex="1" parent="ClPUn2JrLx7FxpA5mYzu-29">
          <mxGeometry y="93" width="730" height="47" as="geometry" />
        </mxCell>
        <mxCell id="ClPUn2JrLx7FxpA5mYzu-39" value="Value 7" style="connectable=0;recursiveResize=0;strokeColor=inherit;fillColor=none;align=center;whiteSpace=wrap;html=1;" vertex="1" parent="ClPUn2JrLx7FxpA5mYzu-38">
          <mxGeometry width="243" height="47" as="geometry">
            <mxRectangle width="243" height="47" as="alternateBounds" />
          </mxGeometry>
        </mxCell>
        <mxCell id="ClPUn2JrLx7FxpA5mYzu-40" value="Value 8" style="connectable=0;recursiveResize=0;strokeColor=inherit;fillColor=none;align=center;whiteSpace=wrap;html=1;" vertex="1" parent="ClPUn2JrLx7FxpA5mYzu-38">
          <mxGeometry x="243" width="244" height="47" as="geometry">
            <mxRectangle width="244" height="47" as="alternateBounds" />
          </mxGeometry>
        </mxCell>
        <mxCell id="ClPUn2JrLx7FxpA5mYzu-41" value="Value 9" style="connectable=0;recursiveResize=0;strokeColor=inherit;fillColor=none;align=center;whiteSpace=wrap;html=1;" vertex="1" parent="ClPUn2JrLx7FxpA5mYzu-38">
          <mxGeometry x="487" width="243" height="47" as="geometry">
            <mxRectangle width="243" height="47" as="alternateBounds" />
          </mxGeometry>
        </mxCell>
      </root>
    </mxGraphModel>
  </diagram>
</mxfile>
